<svg width="141" height="21" viewBox="0 0 141 21" fill="none" xmlns="http://www.w3.org/2000/svg">
<g id="Group 516">
<g id="Iconly/Bold/Star">
<g id="Star">
<path id="Vector" d="M4.40077 12.9424C4.66847 13.2067 4.79146 13.589 4.73048 13.9639L3.81163 19.1449C3.73411 19.584 3.91603 20.0284 4.27674 20.2822C4.63022 20.5455 5.1005 20.5771 5.48603 20.3665L10.0637 17.9339C10.2229 17.8475 10.3996 17.8012 10.5805 17.7959H10.8606C10.9578 17.8107 11.0529 17.8423 11.1397 17.8907L15.7184 20.3349C15.9448 20.4507 16.2011 20.4918 16.4523 20.4507C17.0641 20.3328 17.4724 19.7388 17.3721 19.1123L16.4523 13.9312C16.3913 13.5532 16.5143 13.1688 16.782 12.9003L20.5142 9.21457C20.8263 8.90602 20.9349 8.44268 20.7922 8.02461C20.6537 7.6076 20.3003 7.30327 19.8734 7.23482L14.7365 6.47556C14.3458 6.43449 14.0027 6.19229 13.827 5.83425L11.5634 1.10601C11.5097 1.00071 11.4405 0.903826 11.3567 0.821688L11.2637 0.747973C11.2151 0.693214 11.1593 0.647933 11.0973 0.611076L10.9846 0.568953L10.8089 0.495239H10.3738C9.98518 0.536309 9.64306 0.773247 9.46426 1.12707L7.17075 5.83425C7.00538 6.1786 6.68394 6.41764 6.31288 6.47556L1.17602 7.23482C0.741915 7.298 0.379131 7.60339 0.235464 8.02461C0.100065 8.44689 0.216858 8.91024 0.5352 9.21457L4.40077 12.9424Z" fill="#E50E0E"/>
</g>
</g>
<g id="Iconly/Bold/Star_2">
<g id="Star_2">
<path id="Vector_2" d="M34.4373 12.9424C34.705 13.2067 34.828 13.589 34.767 13.9639L33.8481 19.1449C33.7706 19.584 33.9525 20.0284 34.3132 20.2822C34.6667 20.5455 35.137 20.5771 35.5225 20.3665L40.1002 17.9339C40.2594 17.8475 40.4361 17.8012 40.617 17.7959H40.8971C40.9943 17.8107 41.0894 17.8423 41.1762 17.8907L45.7549 20.3349C45.9813 20.4507 46.2376 20.4918 46.4888 20.4507C47.1006 20.3328 47.5089 19.7388 47.4086 19.1123L46.4888 13.9312C46.4278 13.5532 46.5508 13.1688 46.8185 12.9003L50.5507 9.21457C50.8628 8.90602 50.9714 8.44268 50.8287 8.02461C50.6902 7.6076 50.3368 7.30327 49.9099 7.23482L44.773 6.47556C44.3823 6.43449 44.0392 6.19229 43.8635 5.83425L41.5999 1.10601C41.5462 1.00071 41.477 0.903826 41.3932 0.821688L41.3002 0.747973C41.2516 0.693214 41.1958 0.647933 41.1338 0.611076L41.0211 0.568953L40.8454 0.495239H40.4103C40.0217 0.536309 39.6796 0.773247 39.5008 1.12707L37.2073 5.83425C37.0419 6.1786 36.7204 6.41764 36.3494 6.47556L31.2125 7.23482C30.7784 7.298 30.4156 7.60339 30.272 8.02461C30.1366 8.44689 30.2534 8.91024 30.5717 9.21457L34.4373 12.9424Z" fill="#E50E0E"/>
</g>
</g>
<g id="Iconly/Bold/Star_3">
<g id="Star_3">
<path id="Vector_3" d="M64.4738 12.9424C64.7415 13.2067 64.8645 13.589 64.8035 13.9639L63.8846 19.1449C63.8071 19.584 63.989 20.0284 64.3497 20.2822C64.7032 20.5455 65.1735 20.5771 65.559 20.3665L70.1367 17.9339C70.2959 17.8475 70.4726 17.8012 70.6535 17.7959H70.9336C71.0308 17.8107 71.1259 17.8423 71.2127 17.8907L75.7914 20.3349C76.0178 20.4507 76.2741 20.4918 76.5253 20.4507C77.1371 20.3328 77.5454 19.7388 77.4451 19.1123L76.5253 13.9312C76.4643 13.5532 76.5873 13.1688 76.855 12.9003L80.5872 9.21457C80.8993 8.90602 81.0079 8.44268 80.8652 8.02461C80.7267 7.6076 80.3733 7.30327 79.9464 7.23482L74.8095 6.47556C74.4188 6.43449 74.0757 6.19229 73.9 5.83425L71.6364 1.10601C71.5827 1.00071 71.5134 0.903826 71.4297 0.821688L71.3367 0.747973C71.2881 0.693214 71.2323 0.647933 71.1703 0.611076L71.0576 0.568953L70.8819 0.495239H70.4468C70.0582 0.536309 69.7161 0.773247 69.5373 1.12707L67.2438 5.83425C67.0784 6.1786 66.7569 6.41764 66.3859 6.47556L61.249 7.23482C60.8149 7.298 60.4521 7.60339 60.3085 8.02461C60.1731 8.44689 60.2899 8.91024 60.6082 9.21457L64.4738 12.9424Z" fill="#E50E0E"/>
</g>
</g>
<g id="Iconly/Bold/Star_4">
<g id="Star_4">
<path id="Vector_4" d="M94.5103 12.9424C94.778 13.2067 94.901 13.589 94.84 13.9639L93.9211 19.1449C93.8436 19.584 94.0255 20.0284 94.3862 20.2822C94.7397 20.5455 95.21 20.5771 95.5955 20.3665L100.173 17.9339C100.332 17.8475 100.509 17.8012 100.69 17.7959H100.97C101.067 17.8107 101.162 17.8423 101.249 17.8907L105.828 20.3349C106.054 20.4507 106.311 20.4918 106.562 20.4507C107.174 20.3328 107.582 19.7388 107.482 19.1123L106.562 13.9312C106.501 13.5532 106.624 13.1688 106.891 12.9003L110.624 9.21457C110.936 8.90602 111.044 8.44268 110.902 8.02461C110.763 7.6076 110.41 7.30327 109.983 7.23482L104.846 6.47556C104.455 6.43449 104.112 6.19229 103.936 5.83425L101.673 1.10601C101.619 1.00071 101.55 0.903826 101.466 0.821688L101.373 0.747973C101.325 0.693214 101.269 0.647933 101.207 0.611076L101.094 0.568953L100.918 0.495239H100.483C100.095 0.536309 99.7526 0.773247 99.5738 1.12707L97.2802 5.83425C97.1149 6.1786 96.7934 6.41764 96.4224 6.47556L91.2855 7.23482C90.8514 7.298 90.4886 7.60339 90.345 8.02461C90.2096 8.44689 90.3264 8.91024 90.6447 9.21457L94.5103 12.9424Z" fill="#E50E0E"/>
</g>
</g>
<g id="Iconly/Bold/Star_5">
<g id="Star_5">
<path id="Vector_5" d="M124.547 12.9424C124.814 13.2067 124.937 13.589 124.876 13.9639L123.958 19.1449C123.88 19.584 124.062 20.0284 124.423 20.2822C124.776 20.5455 125.246 20.5771 125.632 20.3665L130.21 17.9339C130.369 17.8475 130.546 17.8012 130.726 17.7959H131.006C131.104 17.8107 131.199 17.8423 131.286 17.8907L135.864 20.3349C136.091 20.4507 136.347 20.4918 136.598 20.4507C137.21 20.3328 137.618 19.7388 137.518 19.1123L136.598 13.9312C136.537 13.5532 136.66 13.1688 136.928 12.9003L140.66 9.21457C140.972 8.90602 141.081 8.44268 140.938 8.02461C140.8 7.6076 140.446 7.30327 140.019 7.23482L134.882 6.47556C134.492 6.43449 134.149 6.19229 133.973 5.83425L131.709 1.10601C131.656 1.00071 131.586 0.903826 131.503 0.821688L131.41 0.747973C131.361 0.693214 131.305 0.647933 131.243 0.611076L131.131 0.568953L130.955 0.495239H130.52C130.131 0.536309 129.789 0.773247 129.61 1.12707L127.317 5.83425C127.151 6.1786 126.83 6.41764 126.459 6.47556L121.322 7.23482C120.888 7.298 120.525 7.60339 120.381 8.02461C120.246 8.44689 120.363 8.91024 120.681 9.21457L124.547 12.9424Z" fill="#E50E0E"/>
</g>
</g>
</g>
</svg>
